<svg id="Layer_1" data-name="Layer 1" xmlns="http://www.w3.org/2000/svg" viewBox="0 0 693.84 877.41"><defs><style>.cls-1{fill:#333333;fill-rule:evenodd;}</style></defs><title>Sideboard Logo</title><path class="cls-1" d="M831,49.64l-10.57-1.92c-42.8,45.91-68.79,107.41-106.67,158.57-30.32,40.94-65.18,79.83-95.14,122l-61.51,86.49-1,2.88c22.34-3.34,20.48-24.92,34.6-35.56l12.49-4.81-1.92-13.45c41.09-58.87,90.29-111.68,128.78-173,14.7-23.42,30.16-66.18,59.58-74l1-1.92c-2.25-1.53-3.49-1.79-7.69-1.92L814.7,60.22c5.43-3.64,5.19-2.45,14.42-1.92,15.43,42.42-10.9,91.53-30.75,124-54.81,89.54-112,175.92-173,258.51l3.84,15.38c2.69,2.76,8.84,3.11,14.42,2.88,10.35,15.15,2.24,34.34-4.81,48.05,9.27-1.93,12.89-7.64,17.3-14.42,15-23.11-13.57-38-24-50.93,60.9-83,119.83-165.1,173.94-256.59C830.15,144.41,856.85,103.24,831,49.64ZM233.28,242.81l-85.53-90.34c10.89,40.64,40.64,70.27,62.47,100.91,23.5,33,40.93,79.67,75.92,100.91L315,362.94l18.26,14.42,27.87,1.92c21.16,6.53,23.58,44.76,55.74,36.52l3.84-1.92c-14-18.33-29.48-35-34.6-62.47-4.49-24.13,6.06-50.88-1.92-71.12-7.38-18.71-22.55-31.93-33.64-47.09-35.92-49.13-79-105.63-126.85-142.23,23.14,51.85,88.64,92.86,99,153.76-22.69-2.61-26.52-20.46-37.48-34.6l-32.67-34.6c-17.63-22.77-30.25-48.57-53.82-65.35l-1,1,59.58,88.41c15.19,19.73,36.9,32.72,36.52,68.23-44.32-30.78-74-111.51-118.21-131.66l25.95,34.6,41.32,65.35c10.42,15.42,26.34,20.17,25.95,47.09C247.81,277.25,244.93,257.85,233.28,242.81Zm71.12,30.75c-1-8.29.65-15.11,1.92-23.06l11.53,4.81c8.75-6.47,15.09-17.87,20.18-27.87l3.84,15.38c5.66,11.08,20.26,14.8,24,28.83-5.61,6.85-18.6,8.57-15.38,21.14-5.42,2.38-8.5,2.95-12.49,5.77-8-6.47-11.52-12.59-18.26-20.18L315,283.17c4.22,7.3,11.74,10.88,13.45,20.18-4.91,4.76-11.61,7.51-13.45,15.38-13.87-4.17-15.62-17.57-25-25.95l11.53,28.83C296.81,329,290,323.37,289,336c-16.83-6.67-29.39-16.26-33.64-35.56C265.71,286.93,282.84,276.07,304.4,273.56Zm16.34,201.81c6.29,67.87,131.28,91.55,212.39,74,26.67-5.77,48.09-15.27,69.19-25.95l26.91-12.49c-15.1-2.71-27.83,2.56-43.25,2.88-7.75-17.49-47.46-39.2-34.6-64.39,8.95-13.1,51.93,9.18,71.12,7.69l1.92-2.88-26.91-14.42-16.34-16.34c-26.57-11.26-104.38-8.11-142.23-7.69l-37.48,3.84C374.85,425.19,317.8,443.69,320.73,475.38ZM415.88,436c22.19.42,44.65,3.21,61.51,9.61l6.73-6.73c16.28,2.74,28.23,8,48.05,7.69L537,466.73l-28.83-1.92-1.92,5.77,19.22,2.88,1.92,8.65-1,1c-7.57-1.29-14.87-4.88-18.26,1l-1.92,1.92,2.88,3.84L525.43,485h1c-.42,10.75-2.87,21.22-7.69,27.87l1,1.92,2.88,1c4.36-3.32,7-6,13.45-7.69l2.88,2.88c-8.38,22.71-29.66,13.13-54.78,17.3-54.91,9.11-120-8.36-140.31-41.32-20.69-33.57,33.75-44.59,62.47-41.32C409.23,440.81,411.07,439,415.88,436Zm-55.74,47.09-1,2.88c15.3-3.08,32.59-17,33.64-34.6l-1.92-1C385.84,465.72,372.58,475,360.14,483.06Zm168.18-28.83-8.65-1.92-2.88,3.84L527.35,461ZM512,460l-7.69-6.73c-2.91,4.5-7.25,4.83-10.57,8.65l4.81,3.84ZM496.6,480.18v5.77l2.88,1.92,5.77-15.38h-1.92Zm185.48,320c31.29-9.67,72-24.09,88.41-49,25.74-39-25.65-78.85-50.93-90.34-7.61,6.28-10.28,16.91-18.26,23.06h-1c10.52-37.33,51.24-74.84,28.83-123v-1c5.45,1,6.2,2,8.65,5.77h3.84c-3.7-38.85-37.08-38.73-72.08-47.09-23.43-1.09-26.33,14.31-31.71,29.79v1c103.37-1.46,96.94,32.51,63.43,99.95-17.65-1.08-72.82-22.64-80.73-32.67-4.49-5.7-3.19-19.95-1-26.91l-7.69-8.65c4.76-9.23,9.09-19.54,5.77-31.71l-1.92-1.92h-3.84L588.86,661.81c-7.57,18.28-20.72,34.63-31.71,50v1c42.38,7,50.39-46.43,95.14,1.92,2.39-3.08,1.46-4.13,5.77-5.77h2.88c1.95,1.31,1.56,1.06,2.88,2.88l-7.69,3.84c4,6.35,11,20.17,20.18,21.14,2.84-3.92,5.08-5.11,5.77-11.53l-9.61,1.92h-1c-.74-26.39,13.57-39.91,40.36-35.56v9.61l2.88,1,6.73-9.61c13.89,5.41,26.19,12.18,27.87,29.79l-61.51,30.75c-1.18-4.33-1.64-5.45-4.81-7.69-13,8.41-31.16,20.55-48.05,8.65-7.78,10.41-22.93,6.23-32.67,1-1.29,4.26-1.51,4.61-4.81,6.73-4.77-10.27-7.58-24.62-10.57-33.64-3-1.9-3.28-2.6-8.65-2.88,2.23,13.36,7.24,23.62,12.49,33.64-7.85,12.18-13.09,25.85-19.22,40.36-37.92,10.13-119.19,7-146.07-13.45l-1.92-1L460.08,780l1.92-2.88c-23.17-13.62-66.87-19.89-69.19-53.82-7.84-1.39-12.87,1.37-18.26,4.81l-15.38-15.38h-25L291.9,694.49c1.82-26,20.39-59.94,40.36-68.23,7.46-1.39,17.26,6.17,28.83,6.73C374,665.19,393.61,683.48,412,708.9c9.88,13.63,13.24,31.54,27.87,40.36,40.75,24.56,94.87-1.21,112.44-27.87l-6.73-9.61h-2.88c-2.3,4.76-1.37,7,1,11.53-13.47,14.81-58.69,23.15-84.57,12.49C445.19,730.08,448,715.4,439.9,704.1c-15.49-21.67-39.12-28.61-50-56.7l2.88-3.84c15.18,2.94,36.83,19.5,55.74,11.53h1.92l1-1.92c-37.3-19.71-98.37-19.19-110.52-64.39-17.15,5.11-26.77,18.16-36.52,30.75-30.73,39.7-48.3,84.83-13.45,134.54-27.79,42.39-71.31,67.59-85.53,124,15,20.27,36.76,40.69,65.35,47.09C309.43,899,349,849.59,364,801.16c-11.17,6.49-16,18.21-23.06,28.83-19.69,29.55-35.2,64.44-67.27,81.69,1.44-4.77,2.22-4.45,7.69-4.81,2.5-52.53,38.39-80.66,56.7-119.17l-11.53-5.77c-12.35,9.9-19.94,31.64-33.64,38.44L290,822.3c8.73-15.51,21.71-24.42,28.83-42.28v-1c-36.73,15.68-42.38,76.76-87.45,82.65l-1.92-3.84,66.31-87.45,4.81-4.81v-1c-18.81,3.68-19.37,19.91-28.83,32.67l-24,20.18c-8.56,12.39-13.06,31.52-26.91,38.44l-2.88,1.92c18.28-35.65,47.89-77.32,78.8-100.91C383.19,822.65,550.6,840.81,682.08,800.2Zm-28.83-99c-1.8-3.72-1.11-3.92,0-8.65l9.61,1.92,1,3.84C660.52,702,658.83,701.81,653.25,701.22Zm-53.82-32.67c.85-15.06,6.91-22.31,10.57-33.64,15.2-6.53,52.75,23.47,71.12,27.87C665.17,679.55,625.68,669.43,599.43,668.54ZM700.34,765.6c3.41-4.42,7.62-5.66,12.49-8.65h7.69c-3.74,4.91-9.1,7.24-15.38,9.61h-4.81ZM265,905l-1.92,1-4.81-4.81,1-6.73c3.72,1.14,3.92.83,5.77,3.84C267.17,901.25,266,900.72,265,905Zm21.14-76.88c-.53,11.73-21.35,32.6-28.83,43.25h-2.88l-5.77-2.88Zm-50,45.17c7.09,4,13.6,17.61,17.3,25-8.32-3-11.43-7.61-23.06-7.69Zm-16.34-10.57,9.61,2.88-3.84,16.34-5.77,1-5.77-11.53ZM314,745.42l48.05,25C347.76,781.11,318.33,753.44,314,745.42Zm73,37.48c-7.36-3.37-9.22-10.87-8.65-22.1l2.88-3.84c9.46,5.27,13.9,15.68,15.38,28.83ZM345.72,529.19c.38,35,16.11,50.73,24,75.92l4.81,3.84-1-56.7C356.94,550.27,357.06,536.19,345.72,529.19Zm58.62,25.95c-4.18,4.49-6.47,9.69-6.73,18.26h6.73c-.13-6.85.26-12.84,1.92-17.3Zm6.73,11.53v2.88L413,573.4c19.52,2.87,17.51,1.9,21.14,22.1,4,3.06,5.53,5.12,12.49,5.77-5.78-15.65-10.34-38.46-29.79-40.36Zm59.58-3.84c2.57,6.22,5.35,15.84,2.88,24C482.31,582.48,477.59,565.83,470.65,562.83ZM462,583l6.73,1,1-10.57H462Zm-59.58,7.69V578.2h-7.69C393.7,586.68,394.15,589.42,402.42,590.7Zm-12.49,29.79,1.92,1,3.84-18.26,2.88-1.92c3.26,4.65,6.18,7.89,11.53,10.57a57,57,0,0,0-2.88-19.22l-2.88-1c-2.91,3.12-5.77,4.38-11.53,4.81Zm74,1h1c3-8.23,12.48-19.57,7.69-28.83l-8.65,25.95Zm-1,25V623.37l-1,23.06Zm149,11.53,21.14-2.88H635l-15.38-1.92L612.88,656ZM454.32,656c3.23,5.86,6.92,8.91,15.38,9.61l7.69-2.88c1.71-2.81,1.57-2.39,1.92-4.81l-24-3.84Zm35.56,11.53,1-11.53h-8.65l2.88,7.69Zm86.49-1.92c-13.61,18.4-53.82,20.54-80.73,11.53,14.15,27.35,70.42,3.57,81.69-8.65C576.79,665.55,578.41,667.91,576.37,665.66ZM536,766.56l-42.28,5.77c11.22,13.87,41.71,7.35,53.82,20.18,9.55-1.62,17.27-6.11,22.1-12.49l-1.92-10.57A129.83,129.83,0,0,0,536,766.56Zm178.75,24c-5.41,7.72-14,15.19-26.91,12.49-2.84,11.45-7.6,14.87-16.34,20.18-6.06-5.82-8.43-15-18.26-14.42,12.39,25.91,59.89,123.69,99,108.6C824,889.75,742.65,811.33,714.75,790.59Zm-13.45,25v-6.73l1-1,15.38,5.77v1Zm16.34,18.26,5.77-5.77-1.92-11.53,6.73,5.77C725.6,828.36,723.65,831.14,717.64,833.84Zm-414.2,41.32,47.09-76.88c1.89-2.5.94-.9,1-3.84l-5.77-1.92C332.08,819.39,311.42,844.2,303.44,875.16Z" transform="translate(-147.75 -47.72)"/></svg>
